<?xml version="1.0" encoding="UTF-8" standalone="no"?>
<svg
   xmlns:dc="http://purl.org/dc/elements/1.1/"
   xmlns:cc="http://creativecommons.org/ns#"
   xmlns:rdf="http://www.w3.org/1999/02/22-rdf-syntax-ns#"
   xmlns:svg="http://www.w3.org/2000/svg"
   xmlns="http://www.w3.org/2000/svg"
   viewBox="0 0 158.82668 158.84"
   height="100"
   width="100"
   xml:space="preserve"
   version="1.1"
   id="svg2"><metadata
     id="metadata8"><rdf:RDF><cc:Work
         rdf:about=""><dc:format>image/svg+xml</dc:format><dc:type
           rdf:resource="http://purl.org/dc/dcmitype/StillImage" /></cc:Work></rdf:RDF></metadata><defs
     id="defs6" /><g
     transform="matrix(1.3333333,0,0,-1.3333333,0,158.84)"
     id="g10"><g
       transform="scale(0.1)"
       id="g12"><path
         id="path14"
         style="fill:#ffffff;fill-opacity:1;fill-rule:nonzero;stroke:none"
         d="m 342.688,645.473 242.609,0 0,-53.231 c -3.953,0.696 -15.067,2.32 -27.27,0.903 -7.222,-0.661 -13.941,-1.368 -20.222,-2.032 -10.84,-1.168 -20.16,-2.164 -28.2,-2.34 -10.23,-0.242 -18.367,-0.253 -25.093,-0.242 -4.832,0 -8.981,0 -12.578,-0.078 l -9.778,-0.226 0,-51.391 -23.953,0 0,-27.93 23.953,0 0,-51.386 -23.953,0 0,-27.84 23.953,0 0,-57.16 9.442,-0.5 c 0.566,-0.047 13.57,-0.719 30.41,-0.372 16.996,0.372 28.933,1.489 39.492,2.422 10.859,0.981 20.246,1.848 33.066,1.848 5.028,0.059 6.711,-1.504 9.426,-4.934 0.363,-0.457 0.856,-0.984 1.305,-1.492 l 0,-140.554 C 526.461,257.871 342.676,361.023 342.676,519.941 l 0.012,125.532 z m 0.015,217.375 510.168,0.058 0.012,-190.726 -510.188,0 0.008,190.668 z m 265.434,-469.536 0,177.325 c 1.293,0.613 2.836,1.218 4.945,1.707 0.121,0.039 10.973,2.246 22.98,0.84 7.161,-0.618 13.793,-1.282 19.985,-2.012 11.238,-1.152 20.933,-2.207 29.765,-2.442 8.907,-0.195 16.29,-0.195 22.516,-0.195 1.867,0 3.676,0 5.356,0 l 0.015,-176.875 c -5.086,-0.098 -11.804,-0.195 -19.336,0 -16.304,0.352 -27.429,1.367 -38.172,2.332 -11.003,1.028 -20.871,1.977 -35.449,1.946 -5.172,0 -9.183,-1.126 -12.605,-2.626 z M 852.91,513.438 c 0,-153.973 -189.094,-258.36 -244.773,-285.723 l 0,140.09 c 1.051,0.996 2.015,2.007 2.785,2.898 2.785,3.242 4.543,5.188 9.879,5.215 12.871,-0.188 22.558,-0.828 33.601,-1.848 10.559,-0.933 22.485,-2.05 39.485,-2.422 16.765,-0.418 29.836,0.325 30.371,0.372 l 9.48,0.5 -0.008,52.324 22.168,0 0,27.922 -22.175,0 -0.012,50.664 22.187,0 0,27.879 -22.199,0 -0.015,56.918 -9.746,0.226 c -3.586,0.098 -7.688,0.098 -12.551,0.078 -6.797,0.086 -14.864,0 -25.098,0.242 -7.969,0.176 -17.336,1.172 -28.125,2.34 -6.277,0.664 -13.059,1.371 -20.09,2 -15.136,1.746 -28.496,-1.008 -29.297,-1.211 -0.238,-0.054 -0.41,-0.132 -0.64,-0.191 l 0,53.762 244.754,0 0.019,-132.035 z M 585.297,394.18 c -2.895,1.008 -6.098,1.758 -10.094,1.758 -0.207,0 -0.422,0 -0.637,0 -13.711,0 -23.968,-0.95 -34.855,-1.915 -10.742,-0.996 -21.875,-2.011 -38.195,-2.363 -7.493,-0.156 -14.235,-0.098 -19.332,0 l 0,176.875 c 0.765,0 1.539,0 2.328,0 6.797,-0.058 15.136,0 25.566,0.195 8.86,0.235 18.559,1.29 29.809,2.493 6.187,0.679 12.773,1.343 20.152,2 11.703,1.281 22.484,-0.821 22.484,-0.821 1.098,-0.254 1.872,-0.593 2.774,-0.886 l 0,-177.336 z M 455.434,278.879 c 67.859,-53.488 134.695,-81.77 137.527,-82.934 l 5.164,-2.183 5.187,2.215 c 2.825,1.242 69.442,29.914 137.079,82.824 91.086,71.258 139.226,152.371 139.226,234.637 l -0.074,376.14 -563.504,-0.043 -0.019,-369.594 c 0,-85.695 48.195,-169.023 139.414,-241.062" /><path
         id="path16"
         style="fill:#ffffff;fill-opacity:1;fill-rule:nonzero;stroke:none"
         d="m 535.684,748.254 c -0.137,-4.977 -6.512,-10.246 -11.813,-13.762 -12.285,-8.262 -30.773,-18.765 -39.547,-23.68 -8.347,5.004 -25.672,15.418 -37.953,23.692 -8.008,5.316 -12.75,10.601 -13.008,14.5 -0.039,1.457 -0.058,13.324 -0.058,28.816 l 102.457,0 c 0,-15.59 -0.02,-27.679 -0.078,-29.566 z m -102.34,75.516 102.383,0 c 0.015,-8.317 0.027,-17.247 0.027,-25.926 l -102.438,0 c 0.008,8.679 0.02,17.601 0.028,25.926 z m 122.359,19.984 -142.387,0 0,-9.977 c -0.05,-31.101 -0.086,-83.679 0.122,-86.086 0.667,-10.777 7.812,-20.539 21.757,-29.836 17.192,-11.527 42.828,-26.531 43.903,-27.175 l 4.882,-2.86 4.922,2.707 c 1.172,0.641 28.817,15.707 46.094,27.328 20.199,13.469 20.547,25.743 20.684,29.836 0.172,2.219 0.117,48.036 0.023,86.086 l 0,9.977" /><path
         id="path18"
         style="fill:#ffffff;fill-opacity:1;fill-rule:nonzero;stroke:none"
         d="m 722.48,817.074 -50.07,-36.172 c -0.015,14.375 -0.015,31.719 0.012,47.078 l 105.566,0 c 0.047,-15.644 0.11,-33.394 0.11,-48.031 l -55.618,37.125 z m 55.508,-66.941 c -0.117,-5.153 -6.679,-10.598 -12.176,-14.332 -12.699,-8.457 -31.867,-19.285 -40.8,-24.293 -8.52,5.062 -26.36,15.836 -39.035,24.293 -3.899,2.629 -13.039,9.344 -13.465,15.199 -0.024,0.543 -0.032,2.398 -0.039,5.254 l 50.449,36.437 55.137,-36.75 c -0.024,-3.054 -0.039,-5.101 -0.071,-5.808 z m 20.008,97.859 -145.562,0 0,-9.992 c -0.032,-39.082 -0.032,-86.07 0.105,-88.504 0.813,-10.844 8.074,-20.812 22.297,-30.273 17.574,-11.805 43.824,-27.203 44.949,-27.86 l 4.871,-2.863 4.953,2.738 c 1.184,0.598 29.571,16.032 47.317,27.985 20.711,13.808 21.004,26.343 21.07,30.496 0.156,2.211 0.109,49.234 0.024,88.289 l -0.024,9.984" /><path
         id="path20"
         style="fill:#ffffff;fill-opacity:1;fill-rule:nonzero;stroke:none"
         d="m 634.109,531.023 9.524,-0.964 c 6.472,-0.75 12.07,-1.289 16.933,-1.407 l 29.446,-0.847 0.457,20.066 -29.407,0.801 c -4.402,0.09 -9.429,0.625 -15.292,1.262 l -9.723,0.972 c -2.609,0.285 -5.102,0.332 -7.375,0.239 l 0.871,-19.961 c 1.363,0.066 2.898,0 4.566,-0.161" /><path
         id="path22"
         style="fill:#ffffff;fill-opacity:1;fill-rule:nonzero;stroke:none"
         d="m 661.211,493.203 c -4.191,0.125 -9.016,0.664 -14.5,1.238 -3.313,0.383 -6.828,0.747 -10.41,1.067 -2.551,0.273 -4.953,0.312 -7.199,0.273 l 0.324,-20.019 c 1.414,0.05 3.015,0 4.871,-0.188 3.691,-0.34 7.098,-0.691 10.293,-1.031 6.133,-0.656 11.484,-1.203 16.164,-1.34 6.133,-0.078 15.074,-0.359 21.734,-0.488 l 7.688,-0.215 0.469,19.961 -7.665,0.242 c -6.64,0.156 -15.644,0.422 -21.769,0.5" /><path
         id="path24"
         style="fill:#ffffff;fill-opacity:1;fill-rule:nonzero;stroke:none"
         d="m 661.223,437.832 c -4.282,0.148 -9.145,0.652 -14.758,1.289 -3.274,0.359 -6.68,0.715 -10.125,1.024 -2.656,0.285 -5.102,0.375 -7.363,0.285 l 0.601,-19.969 c 1.367,0 2.902,0 4.719,-0.219 3.535,-0.332 6.894,-0.73 9.988,-0.996 6.25,-0.711 11.684,-1.258 16.438,-1.402 l 8.293,-0.207 c 8.472,-0.227 17.898,-0.449 21.179,-0.528 l 0.403,20.039 c -3.301,0.071 -12.688,0.254 -21.036,0.508 l -8.339,0.176" /><path
         id="path26"
         style="fill:#ffffff;fill-opacity:1;fill-rule:nonzero;stroke:none"
         d="m 534.707,528.887 c 4.887,0.09 10.469,0.691 16.938,1.418 3.003,0.3 6.187,0.625 9.578,1.004 1.558,0.097 3.148,0.214 4.535,0.144 l 0.301,20.051 c -2.055,0 -4.356,-0.098 -6.7,-0.313 -3.535,-0.3 -6.82,-0.683 -9.882,-1.046 -5.789,-0.575 -10.766,-1.192 -15.219,-1.227 l -29.403,-0.754 0.465,-20.051 29.387,0.774" /><path
         id="path28"
         style="fill:#ffffff;fill-opacity:1;fill-rule:nonzero;stroke:none"
         d="m 549.664,494.824 c -5.801,-0.636 -10.84,-1.191 -15.238,-1.301 l -29.422,-0.769 0.469,-20.027 29.394,0.757 c 4.93,0.129 10.488,0.754 16.957,1.438 l 9.399,0.976 c 1.511,0.118 2.996,0.196 4.375,0.125 l 0.91,20 c -2.074,0.11 -4.473,0 -7.016,-0.203 l -9.828,-0.996" /><path
         id="path30"
         style="fill:#ffffff;fill-opacity:1;fill-rule:nonzero;stroke:none"
         d="m 549.684,439.48 c -5.821,-0.652 -10.84,-1.238 -16.231,-1.316 -9.312,-0.254 -24.058,-0.715 -28.398,-0.82 l 0.367,-19.989 c 4.367,0.125 19.226,0.516 29.48,0.79 4.871,0.125 10.453,0.742 16.946,1.433 l 9.718,0.969 c 1.481,0.176 2.961,0.207 4.317,0.176 l 0.308,19.98 c -2.121,0.059 -4.468,0 -6.675,-0.207 l -9.832,-1.016" /><path
         id="path32"
         style="fill:#ffffff;fill-opacity:1;fill-rule:nonzero;stroke:none"
         d="m 90.2734,592.441 c 25.0196,0 40.3516,16.004 42.2106,43.809 0.282,5.465 -0.125,11.508 -1.488,18.945 l -0.465,2.446 -20.652,0.191 1.933,-4.238 c 1.477,-3.313 2.364,-10.297 2.02,-16.145 -0.934,-14.465 -11.816,-23.308 -27.1406,-22.258 -15.5898,0.985 -25.4961,11.098 -24.6602,25.204 0.3086,4.585 1.0938,9.66 4.8868,15.32 l 2.5781,3.996 -20.375,2.988 -0.9531,-2.039 c -2.586,-5.515 -4.3477,-12.547 -4.7149,-18.746 -1.7929,-29.078 14.2539,-47.551 42.9766,-49.352 1.293,-0.078 2.5859,-0.121 3.8437,-0.121" /><path
         id="path34"
         style="fill:#ffffff;fill-opacity:1;fill-rule:nonzero;stroke:none"
         d="m 80.3164,738.008 c 3.0234,10.785 12.1797,13.047 19.3477,13.047 3.3789,0 7.0549,-0.547 10.6639,-1.559 8.742,-2.516 15.567,-7.074 18.649,-12.582 2.16,-3.883 2.55,-8.254 1.211,-13.098 -3.098,-10.804 -12.098,-13.062 -19.129,-13.062 -3.559,0 -7.368,0.578 -11.3754,1.695 -11.3633,3.25 -23.2734,11.867 -19.3672,25.559 z M 93.543,690.641 c 5.539,-1.539 10.937,-2.348 16.031,-2.348 18.996,0 33.047,11.086 38.567,30.422 3.273,11.555 2.347,22.492 -2.715,31.519 -5.524,10.02 -15.571,17.188 -28.942,20.973 -5.339,1.527 -10.539,2.273 -15.445,2.273 -19.121,0 -33.2148,-11.078 -38.6757,-30.39 -7.0977,-24.848 4.8789,-44.922 31.1797,-52.449" /><path
         id="path36"
         style="fill:#ffffff;fill-opacity:1;fill-rule:nonzero;stroke:none"
         d="m 134.82,829.363 -1.105,-1.945 -13.832,7.394 1.039,1.942 c 3.492,6.434 7.23,11.769 13.14,8.652 2.106,-1.144 3.333,-2.457 3.848,-4.094 1.09,-3.496 -1.289,-8.48 -3.09,-11.949 z m 44.907,-26.449 -29.469,15.762 0.953,1.824 c 2.766,5.277 4.906,4.816 9.457,4.27 l 28.758,-3.665 11.344,21.434 -38.208,3.981 c -2.542,0.195 -5.332,0.113 -7.464,-0.407 0.316,8.145 -3.907,15.789 -11.637,19.903 -4.328,2.285 -8.484,3.453 -12.367,3.453 -13.961,0 -21.375,-14.078 -27.942,-26.52 l -9.9958,-18.765 76.2818,-40.645 10.289,19.375" /><path
         id="path38"
         style="fill:#ffffff;fill-opacity:1;fill-rule:nonzero;stroke:none"
         d="m 227.387,878.09 -39.196,32.496 55.602,-12.652 15.488,18.66 -66.511,55.203 -13.532,-16.399 39.196,-32.511 -55.528,12.836 -15.582,-18.805 66.52,-55.137 13.543,16.309" /><path
         id="path40"
         style="fill:#ffffff;fill-opacity:1;fill-rule:nonzero;stroke:none"
         d="m 323.52,971.508 -11.774,14.508 -24.125,-19.645 -10.48,12.899 22.019,17.847 -11.887,14.483 -21.914,-17.87 -8.695,10.73 23.938,19.48 -11.793,14.5 -40.914,-33.34 54.515,-67.034 41.11,33.442" /><path
         id="path42"
         style="fill:#ffffff;fill-opacity:1;fill-rule:nonzero;stroke:none"
         d="m 395.258,1014.33 -9.227,16.35 -26.761,-15.08 -33.219,59.01 -19.141,-10.82 42.336,-75.251 46.012,25.791" /><path
         id="path44"
         style="fill:#ffffff;fill-opacity:1;fill-rule:nonzero;stroke:none"
         d="m 467.812,1042.13 -6.417,17.56 -28.891,-10.48 -23.051,63.66 -20.625,-7.49 29.375,-81.19 49.609,17.94" /><path
         id="path46"
         style="fill:#ffffff;fill-opacity:1;fill-rule:nonzero;stroke:none"
         d="m 554.801,1056.43 c 1.719,0 3.484,0.1 5.277,0.27 11.957,1.01 20.742,4.76 26.188,11.14 5.117,6.11 7.265,14.56 6.363,25.09 l -4.469,54.21 -21.855,-1.76 4.082,-49.33 c 1.433,-17.4 -5.543,-20.2 -11.774,-20.79 -0.554,0 -1.093,-0.06 -1.593,-0.06 -5.122,0 -12.125,1.93 -13.52,18.63 l -4.035,49.29 -21.82,-1.81 4.48,-54.23 c 1.648,-20.03 12.898,-30.65 32.676,-30.65" /><path
         id="path48"
         style="fill:#ffffff;fill-opacity:1;fill-rule:nonzero;stroke:none"
         d="m 653.711,1108.02 18.672,-53.96 24.043,-3.26 11.609,85.66 -21.023,2.84 -6.817,-50.51 -18.64,53.94 -24.094,3.27 -11.57,-85.69 21.011,-2.83 6.809,50.54" /><path
         id="path50"
         style="fill:#ffffff;fill-opacity:1;fill-rule:nonzero;stroke:none"
         d="m 772.898,1117.95 -20.878,6.62 -25.899,-82.51 20.91,-6.53 25.867,82.42" /><path
         id="path52"
         style="fill:#ffffff;fill-opacity:1;fill-rule:nonzero;stroke:none"
         d="m 881.223,1069.4 -19.746,9.94 -41.68,-42.42 9.246,58.76 -20.891,10.65 -12.832,-90.41 21.274,-10.7 64.629,64.18" /><path
         id="path54"
         style="fill:#ffffff;fill-opacity:1;fill-rule:nonzero;stroke:none"
         d="m 902.844,945.863 11.519,14.66 -24.566,19.196 10.242,13.113 22.258,-17.465 11.504,14.711 -22.309,17.462 8.52,10.87 24.336,-19.008 11.543,14.648 -41.594,32.56 -53.211,-68.075 41.758,-32.672" /><path
         id="path56"
         style="fill:#ffffff;fill-opacity:1;fill-rule:nonzero;stroke:none"
         d="m 989.473,954.242 1.484,-1.699 c 3.086,-3.574 6.277,-7.586 5.996,-10.906 -0.039,-1.52 -0.891,-2.946 -2.551,-4.407 -1.609,-1.394 -3.172,-2.125 -4.773,-2.125 -3.684,0 -7.52,3.801 -10.441,7.114 l -1.461,1.676 11.746,10.347 z m -50.868,-44.625 25.086,22.016 1.399,-1.621 c 3.222,-3.68 3.316,-5.242 0.664,-10.371 l -13.586,-25.579 16.016,-18.218 17.277,34.437 c 0.594,1.246 1.836,3.93 2.234,7.024 7.403,-3.246 16.305,-1.774 22.745,3.847 18.59,16.364 3.72,33.336 -7.13,45.707 l -14.201,16.176 -65,-57.012 14.496,-16.406" /><path
         id="path58"
         style="fill:#ffffff;fill-opacity:1;fill-rule:nonzero;stroke:none"
         d="m 1019.14,840.473 c -4.25,-2.504 -9.55,1.738 -11.97,5.797 -2.69,4.593 -4.24,10.335 -4.43,16.546 l -0.17,4.52 -19.765,-9.133 1.394,-4.426 c 1.953,-6.675 3.164,-10.715 7.344,-17.8 7.031,-11.899 16.387,-18.457 26.297,-18.457 4.62,0 9.28,1.375 13.9,4.168 15.3,9.031 12.89,23.402 11.16,33.894 -1.21,7.422 -1.8,12.02 1.29,13.848 1.54,0.875 2.97,1.3 4.33,1.3 3.96,0 6.59,-3.753 7.55,-5.335 2.51,-4.25 4.15,-9.297 4.85,-14.497 l 0.54,-4.011 17.97,8.136 -0.48,2.375 c -1.26,6.122 -3.74,12.243 -7.52,18.696 -9.42,15.832 -24.87,20.953 -39.31,12.402 -14.79,-8.715 -12.66,-22.773 -11.06,-32.984 1.32,-8.106 1.86,-12.832 -1.92,-15.039" /><path
         id="path60"
         style="fill:#ffffff;fill-opacity:1;fill-rule:nonzero;stroke:none"
         d="m 1029.03,762.23 80.02,32.649 -8.3,20.293 -79.97,-32.668 8.25,-20.274" /><path
         id="path62"
         style="fill:#ffffff;fill-opacity:1;fill-rule:nonzero;stroke:none"
         d="m 1109.35,733.84 -65.78,-16.149 5.21,-21.347 65.8,16.234 5.48,-22.109 18.08,4.453 -16.11,65.433 -18.17,-4.433 5.49,-22.082" /><path
         id="path64"
         style="fill:#ffffff;fill-opacity:1;fill-rule:nonzero;stroke:none"
         d="m 1058.75,629.121 1.22,-21.898 33.93,1.91 54.04,-27.727 -1.27,23.789 -31.55,15.641 29.62,18.59 -1.41,25.695 -50.67,-34.129 -33.91,-1.871" /><path
         id="path66"
         style="fill:#ffffff;fill-opacity:1;fill-rule:nonzero;stroke:none"
         d="m 107.105,431.316 17.911,5.188 -7.504,26.047 13.207,3.828 7.949,-27.414 17.937,5.234 -14.007,48.574 -83.1058,-23.964 6.1953,-21.172 33.8867,9.812 7.5308,-26.133" /><path
         id="path68"
         style="fill:#ffffff;fill-opacity:1;fill-rule:nonzero;stroke:none"
         d="m 149.695,354.656 c -5.484,-2.703 -10.925,-4.136 -15.754,-4.136 -7.503,0 -12.945,3.425 -16.289,10.144 -2.242,4.59 -2.656,9.055 -1.199,13.301 2.027,5.957 7.895,11.66 16.102,15.683 5.086,2.481 10.343,3.848 15.117,3.848 7.676,0 13.258,-3.367 16.465,-10.019 2.23,-4.532 2.586,-9.004 1.117,-13.348 -2.07,-5.996 -7.742,-11.711 -15.559,-15.473 z m 34.375,5.012 c 3.371,9.98 2.309,21.062 -3.179,32.07 -7.629,15.606 -20.309,24.16 -35.52,24.16 -7.324,0 -15.027,-1.953 -22.867,-5.8 -12.625,-6.211 -21.211,-15.078 -24.7852,-25.657 -3.4063,-9.879 -2.2579,-20.972 3.2032,-32.019 7.613,-15.481 20.328,-23.984 35.89,-23.984 7.418,0 15.168,1.96 22.934,5.773 12.274,6.062 20.68,14.832 24.324,25.457" /><path
         id="path70"
         style="fill:#ffffff;fill-opacity:1;fill-rule:nonzero;stroke:none"
         d="m 243.617,292.734 -38.699,-30.8 c -10.426,-8.34 -17.887,-9.09 -23.895,-1.524 -2.464,3.106 -3.484,6.082 -3.109,9.082 0.516,4.297 3.902,8.899 10.117,13.86 l 38.649,30.742 -13.766,17.254 -42.566,-33.789 c -8.856,-7.039 -13.578,-14.954 -13.953,-23.516 -0.395,-7.93 3,-16.477 10.07,-25.273 8.375,-10.579 17.375,-15.879 26.82,-15.879 6.996,0 14.211,2.91 21.488,8.691 l 42.61,33.848 -13.766,17.304" /><path
         id="path72"
         style="fill:#ffffff;fill-opacity:1;fill-rule:nonzero;stroke:none"
         d="m 317.109,222.402 -32.297,-39.433 12.297,55.859 -19.089,15.547 -54.778,-66.875 16.613,-13.461 32.325,39.496 -12.16,-56.055 18.859,-15.48 54.773,66.887 -16.543,13.515" /><path
         id="path74"
         style="fill:#ffffff;fill-opacity:1;fill-rule:nonzero;stroke:none"
         d="m 385.199,131.031 c -4.469,-8.953 -12.211,-14.019 -21.246,-14.019 -3.683,0 -7.351,0.898 -10.652,2.578 l -5.348,2.609 22.07,43.93 5.313,-2.688 c 5.555,-2.8 9.84,-7.66 11.742,-13.441 1.949,-6.02 1.313,-12.59 -1.879,-18.969 z m -4.265,50.481 -22.258,11.203 -38.856,-77.266 22.258,-11.121 c 10.711,-5.3983 20.07,-7.9882 28.629,-7.9882 14.957,0 26.695,8.1722 34.859,24.3982 12.868,25.614 4.614,46.051 -24.632,60.774" /><path
         id="path76"
         style="fill:#ffffff;fill-opacity:1;fill-rule:nonzero;stroke:none"
         d="m 428.617,67.4805 51.715,-13.7617 4.813,17.9921 -30.403,8.1602 4.235,16 27.625,-7.3594 4.863,17.9763 -27.653,7.41 3.528,13.364 30.156,-8.024 4.875,17.992 -51.516,13.801 -22.238,-83.5505" /><path
         id="path78"
         style="fill:#ffffff;fill-opacity:1;fill-rule:nonzero;stroke:none"
         d="m 555.332,62.7305 -5.945,0.3007 2.836,48.9808 5.859,-0.313 c 11.625,-0.629 22.926,-9.73 22.047,-25.7302 -0.981,-16.668 -13.535,-23.8477 -24.797,-23.2383 z m 0.777,67.8205 -24.957,1.429 -4.828,-86.3198 24.844,-1.4219 c 1.906,-0.1172 3.797,-0.1485 5.684,-0.1485 28.96,0 44.441,13.629 45.98,40.5118 0.719,13.3281 -2.301,23.8984 -9.098,31.5074 -7.812,8.711 -20.14,13.45 -37.625,14.442" /><path
         id="path80"
         style="fill:#ffffff;fill-opacity:1;fill-rule:nonzero;stroke:none"
         d="m 692.52,89.5586 2.761,22.5704 11.797,-19.4376 -14.558,-3.1328 z M 678.918,137.07 664.23,45.5781 l 22.618,4.8828 2.976,19.3789 27.742,6.0821 10.559,-16.6836 23.691,5.1719 -51.164,77.3008 -21.734,-4.641" /><path
         id="path82"
         style="fill:#ffffff;fill-opacity:1;fill-rule:nonzero;stroke:none"
         d="m 761.035,92.4102 7.488,-20.7696 20.793,7.4883 -7.57,20.8203 -20.711,-7.539" /><path
         id="path84"
         style="fill:#ffffff;fill-opacity:1;fill-rule:nonzero;stroke:none"
         d="m 838.152,121.781 -5.191,-2.82 -23.399,43.09 5.243,2.828 c 3.457,1.91 7.375,2.961 11.316,2.961 8.715,0 16.359,-4.918 20.93,-13.289 7.617,-14.129 1.301,-27.211 -8.899,-32.77 z m -35.015,58.078 -21.946,-11.82 41.243,-76.0195 21.875,11.8905 c 28.726,15.512 36.375,36.219 22.722,61.418 -13.515,25.043 -35.195,30.16 -63.894,14.531" /><path
         id="path86"
         style="fill:#ffffff;fill-opacity:1;fill-rule:nonzero;stroke:none"
         d="m 883.496,152.621 12.695,-18.18 18.157,12.618 -12.629,18.211 -18.223,-12.649" /><path
         id="path88"
         style="fill:#ffffff;fill-opacity:1;fill-rule:nonzero;stroke:none"
         d="m 918.02,263.262 -3.84,-33.914 18.984,-2.59 1.563,14.133 41.242,-41.836 15.742,15.535 -60.695,61.555 -12.996,-12.883" /><path
         id="path90"
         style="fill:#ffffff;fill-opacity:1;fill-rule:nonzero;stroke:none"
         d="m 1023.71,278.906 c -2.93,-3.957 -8.44,-5.117 -12.19,-2.351 -3.42,2.554 -4.54,6.05 -3.62,11.961 6.21,4.05 10.74,4.714 14.63,1.804 1.82,-1.328 2.82,-2.996 3.14,-4.91 0.31,-2.058 -0.4,-4.387 -1.96,-6.504 z m -29.667,23.301 c -3.086,-1.941 -6.301,-3.602 -9.141,-3.602 -1.367,0 -2.547,0.348 -3.625,1.129 -4.246,3.188 -2.136,8.418 -0.222,10.957 1.433,2.012 3.242,2.993 5.254,2.993 1.433,0 3.046,-0.571 4.582,-1.672 2.593,-1.992 3.738,-6.485 3.152,-9.805 z m 41.097,6.309 c -7.22,5.3 -15.3,6.172 -24.27,2.707 0.14,8.484 -4.27,15.781 -9.54,19.707 -10.764,7.898 -25.139,3.445 -35.678,-10.793 -10.437,-14.102 -9.492,-28.391 2.512,-37.325 5.969,-4.421 13.77,-5.429 21.25,-2.753 -0.535,-9.422 2.5,-16.485 9.18,-21.387 4.856,-3.594 9.896,-5.41 15.076,-5.41 8.67,0 17.34,5.332 24.54,14.953 6.03,8.23 8.68,16.492 7.56,23.914 -0.98,6.387 -4.53,11.824 -10.63,16.387" /><path
         id="path92"
         style="fill:#ffffff;fill-opacity:1;fill-rule:nonzero;stroke:none"
         d="m 1073.53,360.312 c -1.36,-2.839 -3.55,-4.218 -6.63,-4.218 -2.1,0 -4.53,0.644 -7.05,1.953 -4.25,2.098 -7.14,4.746 -7.98,7.433 -0.53,1.598 -0.37,3.172 0.48,4.95 1.3,2.578 3.4,3.84 6.51,3.84 2.34,0 5.06,-0.723 7.87,-2.129 3.69,-1.868 6.36,-4.446 7.23,-7.09 0.54,-1.594 0.36,-3.156 -0.43,-4.739 z m 0.79,32.715 c -14.98,7.481 -29.21,3.02 -36.41,-11.355 -2.03,-4.074 -2.86,-7.988 -2.47,-11.887 -5.36,4.414 -10.23,11.27 -6.02,19.735 2.14,4.308 4.96,7.16 8.41,10.168 l 2.91,2.5 -15.89,11.406 -1.79,-1.758 c -4.42,-4.297 -7.9,-9.109 -10.64,-14.59 -4.26,-8.601 -5.09,-16.926 -2.38,-24.961 4.64,-13.973 18.89,-23.515 29.94,-28.992 9.64,-4.875 17.87,-7.238 25.08,-7.238 10.97,0 19.21,5.461 24.61,16.203 8.35,16.765 2.74,31.621 -15.35,40.769" /><path
         id="path94"
         style="fill:#ffffff;fill-opacity:1;fill-rule:nonzero;stroke:none"
         d="m 1104.91,480.266 c -17.26,5.183 -31.19,-2.61 -36.08,-19.258 -0.49,-1.535 -0.84,-2.961 -1.02,-4.199 l -10.12,3.218 8.8,29.731 -17.24,5.078 -14.81,-49.887 47.9,-15.242 -0.02,4.188 c -0.03,4.652 0.58,9.035 1.9,13.507 1.23,4.121 5.65,14.328 14.91,11.59 9.82,-2.976 7.55,-13.543 6.66,-16.726 -1.75,-5.848 -5.18,-10.047 -8.04,-13.528 l -2.75,-3.367 20.16,-6.648 1.23,2.175 c 3.31,5.832 6.24,12.579 7.79,17.93 3.04,10.11 2.63,19.414 -1.13,26.895 -3.56,6.992 -9.96,12.121 -18.14,14.543" /><path
         id="path96"
         style="fill:#ffffff;fill-opacity:1;fill-rule:nonzero;stroke:none"
         d="m 595.621,1016.05 c 231.82,0 420.439,-188.632 420.439,-420.398 0,-231.836 -188.619,-420.441 -420.439,-420.441 -231.851,0 -420.43,188.605 -420.43,420.441 0,231.766 188.579,420.398 420.43,420.398 z M 160.145,595.652 c 0,-240.191 195.324,-435.562 435.476,-435.562 240.149,0 435.489,195.371 435.489,435.562 0,240.125 -195.34,435.478 -435.489,435.478 -240.152,0 -435.476,-195.353 -435.476,-435.478" /><path
         id="path98"
         style="fill:#ffffff;fill-opacity:1;fill-rule:nonzero;stroke:none"
         d="m 595.621,15.5391 c -319.859,0 -580.0546,260.1909 -580.0546,580.0589 0,319.836 260.1956,580.082 580.0546,580.082 319.859,0 580.059,-260.246 580.059,-580.082 0,-319.868 -260.2,-580.0589 -580.059,-580.0589 z m 0,1175.7109 C 267.18,1191.25 0,924.062 0,595.598 0,267.234 267.18,0 595.621,0 924.07,0 1191.24,267.234 1191.24,595.598 c 0,328.464 -267.17,595.652 -595.619,595.652" /></g></g></svg>